#!OML:ASF H:\Terrain\Patient Classification 1\Takeo\Monday\TakeoMonday.ASF
:FULLY-SPECIFIED
:DEGREES
1
root 6.18215 17.4574 -0.62771 -4.27494 -6.84269 -0.719991
lowerback 5.48499 -0.577569 1.27087
upperback 2.82617 -0.711335 0.183517
thorax -0.182545 -0.346488 -0.485085
lowerneck -9.72587 -1.99242 -2.65042
upperneck -3.80096 -2.38455 6.9959
head 0.597287 -1.07805 2.60855
rclavicle 7.97934e-015 3.52843e-015
rhumerus -19.4374 39.583 -109.749
rradius 63.3472
rwrist -8.06916
rhand -49.5722 48.6415
rfingers 7.12502
rthumb -22.1785 19.8938
lclavicle 7.97934e-015 3.52843e-015
lhumerus -11.6971 -28.5494 102.58
lradius 78.1834
lwrist 27.7944
lhand -42.0687 13.8181
lfingers 7.12502
lthumb -14.9613 43.2577
rfemur -9.15109 11.6207 17.0182
rtibia 30.0621
rfoot -13.5085 -7.36204
rtoes -16.1269
lfemur -4.07385 14.1889 -21.2419
ltibia 32.7211
lfoot -23.1038 21.623
ltoes -1.03235
2
root 6.18778 17.4631 -0.634171 -4.4047 -6.97427 -0.859847
lowerback 5.65561 -0.50961 1.36653
upperback 2.87586 -0.613883 0.211041
thorax -0.225141 -0.297141 -0.514665
lowerneck -10.295 -2.01881 -2.53044
upperneck -3.20948 -2.45608 6.84598
head 0.884017 -1.09759 2.53212
rclavicle 2.2385e-014 6.63444e-015
rhumerus -19.415 39.6933 -109.685
rradius 63.5249
rwrist -8.21037
rhand -49.8111 47.8506
rfingers 7.12502
rthumb -22.4077 19.1303
lclavicle 2.2385e-014 6.63444e-015
lhumerus -11.7206 -28.5404 102.653
lradius 78.1007
lwrist 27.6335
lhand -42.16 13.6712
lfingers 7.12502
lthumb -15.0493 43.1042
rfemur -8.93628 11.7597 17.1963
rtibia 29.8767
rfoot -13.3678 -7.39521
rtoes -16.427
lfemur -4.00845 14.3174 -21.0472
ltibia 32.856
lfoot -23.1568 21.5192
ltoes -1.53992
3
root 6.19524 17.4627 -0.63746 -4.39385 -7.23675 -0.991591
lowerback 5.63612 -0.319369 1.52705
upperback 2.84329 -0.352521 0.252125
thorax -0.243299 -0.165457 -0.577574
lowerneck -10.229 -2.16621 -2.77933
upperneck -3.07878 -2.63307 6.9727
head 0.9318 -1.18051 2.61344
rclavicle -2.3233e-014 3.65267e-015
rhumerus -19.5132 39.5152 -109.554
rradius 63.6726
rwrist -8.50227
rhand -49.9064 46.7201
rfingers 7.12502
rthumb -22.4992 18.0108
lclavicle -2.3233e-014 3.65267e-015
lhumerus -11.8751 -28.7419 102.942
lradius 78.1003
lwrist 27.6268
lhand -42.0066 13.5047
lfingers 7.12502
lthumb -14.9015 42.9487
rfemur -8.99144 12.1035 17.324
rtibia 29.887
rfoot -13.256 -7.4251
rtoes -16.3902
lfemur -3.98781 14.4679 -20.933
ltibia 32.8799
lfoot -23.4002 21.442
ltoes -1.28422
4
root 6.20189 17.4539 -0.646694 -4.50586 -7.86668 -0.928262
lowerback 5.78298 -0.0707271 1.34412
upperback 2.86933 -0.0284512 0.290904
thorax -0.291322 -0.00572638 -0.453739
lowerneck -11.1222 -2.3485 -2.2001
upperneck -2.11795 -2.9672 6.08243
head 1.38126 -1.33861 2.19332
rclavicle -1.26756e-014 -1.04362e-015
rhumerus -19.449 39.4441 -109.37
rradius 63.6235
rwrist -8.55145
rhand -49.875 46.831
rfingers 7.12502
rthumb -22.4691 18.1181
lclavicle -1.26756e-014 -1.04362e-015
lhumerus -11.9215 -28.7468 103.074
lradius 78.225
lwrist 27.6098
lhand -41.7753 13.6557
lfingers 7.12502
lthumb -14.6787 43.1161
rfemur -8.98719 12.6388 17.2557
rtibia 29.8015
rfoot -13.0382 -7.22519
rtoes -15.8038
lfemur -3.84074 14.9754 -20.9742
ltibia 32.967
lfoot -23.701 21.3172
ltoes -0.575984
5
root 6.21696 17.4535 -0.656173 -4.53424 -8.18944 -1.19393
lowerback 5.93128 -0.0232958 1.53173
upperback 2.8939 0.0474586 0.409097
thorax -0.346796 0.0328015 -0.442209
lowerneck -14.0771 -2.60769 -0.376167
upperneck 0.770252 -3.58717 3.51512
head 2.79209 -1.64653 0.973408
rclavicle -3.37406e-014 9.39258e-015
rhumerus -19.3206 39.4023 -109.208
rradius 63.372
rwrist -8.57999
rhand -49.6397 49.813
rfingers 7.12502
rthumb -22.2433 21.0729
lclavicle -3.37406e-014 9.39258e-015
lhumerus -11.8671 -28.5658 103.102
lradius 78.3009
lwrist 27.5998
lhand -41.8395 13.7786
lfingers 7.12502
lthumb -14.7405 43.2345
rfemur -8.96203 12.8763 17.5089
rtibia 29.7347
rfoot -13.0328 -7.09013
rtoes -14.5324
lfemur -3.79593 15.2207 -20.7029
ltibia 33.082
lfoot -23.8018 21.2183
ltoes 0.277256
